<svg version="1.1" id="Layer_1" xmlns="http://www.w3.org/2000/svg" xmlns:xlink="http://www.w3.org/1999/xlink" x="0px" y="0px" enable-background="new 0 0 224 336" xml:space="preserve" viewBox="7.51 78.21 210.73 176.11"> <path fill="#f7931a" opacity="1.f7931a" stroke="none" d=" M21.989922,234.734344  	C20.641518,231.496567 21.525478,229.224304 23.269262,226.612732  	C25.599184,223.123337 27.835604,219.506271 24.414080,214.793671  	C19.873430,208.539673 19.433056,201.428452 23.313339,194.517441  	C24.706272,192.036560 24.739792,189.908157 23.494072,187.486740  	C21.589561,183.784775 20.831835,179.956482 22.692097,175.966049  	C23.616568,173.982986 22.855022,172.513138 21.381132,171.099625  	C15.083928,165.060394 12.635560,157.432190 12.806151,148.937164  	C12.886360,144.942993 11.687784,141.416275 10.163407,137.883408  	C7.073070,130.721298 6.829574,123.323700 8.669727,115.857910  	C10.569479,108.150299 14.538414,104.838043 22.478971,104.684196  	C37.799480,104.387344 51.594929,109.357086 64.353569,117.510925  	C67.015762,119.212288 69.609352,121.070053 72.009621,123.119225  	C74.738991,125.449341 77.510010,127.188904 81.297379,127.324471  	C83.510262,127.403694 86.080528,127.916168 86.446663,131.439560  	C83.690079,132.222824 82.582657,134.263367 81.653618,137.091125  	C80.474243,140.680878 77.296516,142.746094 73.301292,141.088943  	C69.284958,139.423019 66.114792,143.926224 62.162373,141.845596  	C63.334064,143.202606 65.941185,144.862732 64.349274,145.591675  	C61.303082,146.986557 59.903965,151.759354 55.001152,150.309341  	C56.246456,146.857605 56.513466,143.694107 52.159115,141.558838  	C56.991138,138.636032 59.446110,133.394577 65.372025,133.802826  	C65.464928,133.222427 65.668839,132.782394 65.539803,132.636093  	C53.743912,119.264832 40.138596,109.187805 21.438129,108.247231  	C16.636026,108.005707 13.917215,109.980637 12.988538,114.734131  	C11.620045,121.738823 11.480629,128.659073 14.285574,135.341354  	C16.312294,140.169662 17.471966,145.046356 17.425524,150.351471  	C17.368107,156.909927 19.649387,162.796997 24.372637,167.490417  	C27.438990,170.537384 29.156509,173.608261 27.382168,178.156586  	C26.256895,181.041092 27.073709,184.030289 29.567556,186.526184  	C33.794220,184.695343 37.664349,182.443848 42.739193,181.286087  	C39.339916,173.504135 43.695210,168.376953 48.058929,163.217453  	C50.236023,160.643341 51.322159,162.279541 52.511646,164.166412  	C53.732246,166.102631 52.903263,167.618073 51.618332,169.045837  	C52.495747,169.877457 53.618530,170.503922 54.081268,171.452393  	C56.768921,176.961273 60.659912,179.159653 66.668159,176.664032  	C67.872589,176.163742 69.472755,176.143646 70.098595,177.740234  	C70.733002,179.358673 69.415558,180.113754 68.289932,180.859940  	C61.035118,185.669373 60.639210,187.404205 65.155487,194.576904  	C68.308609,199.584641 65.072205,208.082657 58.071106,211.983475  	C61.270706,212.949768 60.631866,214.942825 59.719902,216.916183  	C57.469433,221.785889 57.276516,226.880875 58.016945,232.068359  	C58.388165,234.669113 57.351284,236.264374 54.854958,236.897507  	C46.501041,239.016281 40.609756,244.555954 35.293438,250.907684  	C34.759819,251.545212 34.254623,252.218109 33.650154,252.782364  	C32.367924,253.979248 30.817276,254.953918 29.185263,253.788971  	C27.621080,252.672424 28.461960,251.104614 29.121714,249.731216  	C29.472942,249.000076 29.831650,248.272507 30.235895,247.442963  	C28.303682,246.465149 26.239799,249.536240 24.731176,246.924774  	C23.005930,243.938278 25.267864,241.991226 26.746044,239.834473  	C25.161085,238.171890 23.672344,236.610229 21.989922,234.734344  z"></path> <path fill="#f7931a" opacity="1.f7931a" stroke="none" d=" M190.575668,201.912170  	C190.430161,192.143265 186.051910,185.869766 177.035736,182.907623  	C175.008560,182.241608 173.781082,180.986832 173.988510,178.436935  	C174.730118,169.320572 173.113342,166.649612 165.080093,162.782394  	C163.626129,162.082458 161.828674,161.822571 160.912582,159.352005  	C166.586868,154.401825 173.236069,157.359161 179.775467,157.348297  	C180.721558,152.752228 176.920349,149.910889 175.333832,146.096634  	C179.572342,142.750031 182.860748,146.606598 186.872406,147.354019  	C188.411346,144.604279 187.359283,142.129105 185.467346,140.322556  	C178.568787,133.735199 177.150299,125.583000 177.614410,116.532227  	C178.087646,107.303253 176.521790,98.241432 173.428131,89.543045  	C170.569351,81.505058 166.771225,80.359329 159.900558,85.210060  	C149.029190,92.885307 141.209152,102.554474 139.260727,116.276192  	C138.757767,119.818329 137.431183,123.382324 135.795441,126.585144  	C134.208771,129.691833 131.270828,131.009506 127.776398,129.187866  	C126.269371,128.402252 125.073547,127.176414 124.854675,125.369125  	C124.552391,122.873108 127.121704,123.477280 128.083176,122.572517  	C124.009560,109.420235 129.798141,99.465706 138.162552,90.439949  	C141.681076,86.643234 145.831406,83.402817 150.513382,81.194160  	C156.155746,78.532463 162.521225,78.605438 168.545807,78.221489  	C172.959412,77.940208 175.854050,81.890877 177.428360,85.980057  	C181.612411,96.847755 183.145691,108.212532 182.667679,119.767494  	C182.434906,125.394173 183.337677,130.316284 187.172760,134.542969  	C190.842010,138.586884 193.545258,142.985855 193.419678,148.791763  	C193.351883,151.926300 195.155792,154.490295 197.461929,156.549759  	C198.949112,157.877869 200.532700,159.122177 202.186844,160.234924  	C208.674927,164.599533 211.997604,170.141220 209.009644,177.919373  	C209.702881,179.847427 211.426361,179.846817 212.755722,180.333908  	C214.296921,180.898560 215.950531,181.923584 215.734329,183.318039  	C214.650314,190.309723 221.840210,197.266159 215.788651,204.219727  	C215.216309,204.877350 214.874390,205.787048 215.449112,206.522308  	C219.551605,211.770828 215.728271,214.620041 212.188583,217.590927  	C211.693436,218.006516 211.297348,218.540131 210.714539,219.171799  	C212.268692,223.000870 217.224182,224.637161 217.344772,229.306198  	C215.426270,231.260010 213.897217,229.813538 212.543121,228.733856  	C205.672821,223.255798 198.415085,218.809616 189.302673,218.121063  	C186.372620,217.899673 186.074173,215.648483 187.282303,213.268524  	C189.039093,209.807816 189.887070,206.086044 190.575668,201.912170  z"></path> <path fill="#f7931a" opacity="1.f7931a" stroke="none" d=" M124.202423,171.870972  	C120.347885,176.291046 121.548584,182.975693 126.323486,185.227966  	C128.296768,186.158737 130.202744,187.180984 131.654831,188.846481  	C136.746628,194.686523 140.634918,201.571381 147.901855,206.196655  	C144.632828,207.689026 143.303696,205.790680 141.827530,204.776672  	C138.814941,202.707230 136.091431,200.177582 132.957840,198.331482  	C125.518303,193.948517 119.825722,195.569809 115.115623,202.853500  	C112.577530,206.778427 110.777451,211.399231 105.766426,213.412323  	C109.761230,206.414001 109.883537,198.139526 113.744232,191.177780  	C114.540993,189.741028 115.499359,188.327942 116.647331,187.164566  	C119.810387,183.959000 121.006874,177.709579 117.743958,174.901245  	C113.582397,171.319534 110.160736,167.995300 112.060997,162.322006  	C108.918594,161.174850 108.210289,162.914108 107.534569,164.365952  	C106.572807,166.432404 105.164131,167.910553 102.903000,166.910141  	C100.632256,165.905457 101.058571,163.658905 101.505089,161.654877  	C103.647591,152.039062 116.142296,146.255615 126.084839,150.372253  	C128.990829,151.575439 132.001221,152.824280 133.596893,155.848511  	C134.426926,157.421646 135.744919,159.187195 133.953156,160.819931  	C132.222382,162.397095 130.385834,162.252014 128.723099,160.396896  	C127.840080,159.411713 126.625893,158.303528 125.274208,159.269257  	C123.589035,160.473236 124.770210,161.943237 125.426109,163.248413  	C126.933632,166.248215 126.628334,169.024048 124.202423,171.870972  z"></path> <path fill="#f7931a" opacity="1.f7931a" stroke="none" d=" M65.559914,165.254837  	C66.542946,166.766312 67.405052,167.940109 68.542786,169.489182  	C65.734726,170.815262 63.418633,169.949753 61.144150,169.204025  	C59.719540,168.736969 58.809383,167.765701 59.557396,166.164200  	C61.544083,161.910629 61.980526,157.480316 62.327145,152.796356  	C62.761360,146.928726 71.837181,141.949463 78.278671,142.871857  	C86.437820,144.040176 91.581497,149.361710 95.952484,155.613495  	C97.829697,158.298447 94.972183,163.197723 90.740173,165.223419  	C90.647888,165.084793 90.470688,164.943192 90.475433,164.807983  	C90.849243,154.175323 89.135658,151.568115 81.517471,151.204803  	C72.080101,150.754730 66.071976,155.878677 65.559914,165.254837  z"></path> <path fill="#f7931a" opacity="1.f7931a" stroke="none" d=" M141.556885,140.303436  	C135.733871,142.436996 134.922821,147.151154 135.018631,152.598190  	C130.578827,150.680191 130.670914,147.479874 131.072479,144.400711  	C131.936493,137.775543 137.444977,132.274933 144.171127,131.012939  	C151.451797,129.646896 155.183411,131.556900 159.643585,138.683380  	C160.779251,140.497986 162.473053,141.961807 163.620941,143.770523  	C166.610168,148.480560 165.806396,150.382263 160.219559,152.389206  	C158.696640,140.774689 153.091614,137.029404 141.556885,140.303436  z"></path> <path fill="#f7931a" opacity="1.f7931a" stroke="none" d=" M139.032501,149.821075  	C138.254883,148.381912 137.357849,147.293930 138.222580,145.958298  	C140.708221,145.253418 141.312469,150.558823 144.012589,147.723175  	C146.236816,145.387314 142.898575,144.117722 142.339645,142.325607  	C142.600983,142.003265 142.935089,141.521774 142.978973,141.546921  	C147.565338,144.174362 152.440781,146.437820 156.587082,149.643677  	C159.380219,151.803284 157.948364,156.011917 154.275879,157.647278  	C150.102814,159.505569 145.844620,159.049866 141.671677,157.466034  	C137.905579,156.036636 139.832291,152.643417 139.032501,149.821075  z"></path> <path fill="#f7931a" opacity="1.f7931a" stroke="none" d=" M83.941772,159.794312  	C86.709015,161.454498 88.557777,163.461044 87.916580,166.460236  	C87.313377,169.281784 84.604240,170.069778 82.252701,170.810959  	C73.695374,173.508102 67.235550,168.129700 68.368935,159.298676  	C70.517990,158.917831 71.341141,163.374130 73.773689,161.079300  	C76.539131,158.470413 71.734146,157.604630 71.941772,154.748138  	C76.428169,155.478088 79.147789,159.883835 83.941772,159.794312  z"></path> <path fill="#f7931a" opacity="1.f7931a" stroke="none" d=" M151.077377,118.691528  	C154.529984,118.647072 157.433014,118.712784 156.399033,123.173317  	C155.859482,125.500900 158.529968,126.354713 158.958923,128.126160  	C158.669250,129.951187 156.914886,130.923340 156.118286,130.333694  	C151.899277,127.210854 145.288391,129.190918 142.060303,123.695030  	C143.855316,120.055206 147.236725,119.354149 151.077377,118.691528  z"></path> </svg>